<svg xmlns="http://www.w3.org/2000/svg" xmlns:xlink="http://www.w3.org/1999/xlink" viewBox="0 0 500 372.5"><defs><style>.cls-1{fill:#ebebeb;}.cls-2{fill:#e6e6e6;}.cls-3{fill:#f0f0f0;}.cls-12,.cls-13,.cls-15,.cls-4,.cls-9{fill:#fff;}.cls-5{fill:#e0e0e0;}.cls-6{fill:#f5f5f5;}.cls-7{fill:#fafafa;}.cls-14,.cls-8{fill:#4682b4;}.cls-9{opacity:0.8;}.cls-10,.cls-12,.cls-13,.cls-14,.cls-15,.cls-9{isolation:isolate;}.cls-10,.cls-12{opacity:0.2;}.cls-11{fill:#263238;}.cls-13{opacity:0.5;}.cls-14{opacity:0.6;}.cls-15{opacity:0.3;}.cls-16{fill:#ffb573;}.cls-17{fill:#ed893e;}</style></defs><g id="Layer_2" data-name="Layer 2"><g id="Layer_1-2" data-name="Layer 1"><g id="freepik--background-complete--inject-26"><rect class="cls-1" y="327.4" width="500" height="0.3"/><rect class="cls-1" x="394.7" y="343.5" width="55.2" height="0.3"/><rect class="cls-1" x="321.8" y="338.3" width="8.7" height="0.3"/><rect class="cls-1" x="372.5" y="334.2" width="19.2" height="0.3"/><rect class="cls-1" x="52.5" y="335.9" width="43.2" height="0.3"/><rect class="cls-1" x="215.3" y="342.4" width="45.7" height="0.3"/><rect class="cls-1" x="140.5" y="338.1" width="93.7" height="0.3"/><path class="cls-1" d="M242.7,277.1a5.7,5.7,0,0,1-5.7,5.7H43.9a5.76,5.76,0,0,1-5.7-5.7V5.7A5.76,5.76,0,0,1,43.9,0H237a5.7,5.7,0,0,1,5.7,5.7h0m-.2,0A5.46,5.46,0,0,0,237.1.2H43.9a5.48,5.48,0,0,0-5.5,5.5V277.1a5.48,5.48,0,0,0,5.5,5.5H237a5.48,5.48,0,0,0,5.5-5.5"/><path class="cls-1" d="M453.3,282.8H260.2a5.7,5.7,0,0,1-5.7-5.7V5.7A5.76,5.76,0,0,1,260.2,0H453.3A5.7,5.7,0,0,1,459,5.7V277.1A5.7,5.7,0,0,1,453.3,282.8ZM260.2.2a5.48,5.48,0,0,0-5.5,5.5V277.1a5.48,5.48,0,0,0,5.5,5.5H453.3a5.48,5.48,0,0,0,5.5-5.5V5.7A5.48,5.48,0,0,0,453.3.2Z"/><rect class="cls-2" x="273.2" y="69.8" width="66.4" height="76.9"/><rect class="cls-3" x="274.2" y="69.8" width="70" height="76.9"/><rect class="cls-4" x="280" y="75.7" width="58.3" height="65.2"/><path class="cls-3" d="M323.3,123H308.2a13.83,13.83,0,0,1-13.8-13.8V94.1a.65.65,0,0,1,.6-.6h15.1a13.83,13.83,0,0,1,13.8,13.8v15.1a.58.58,0,0,1-.6.6ZM295.5,94.6v14.6a12.72,12.72,0,0,0,12.7,12.7h14.6V107.4a12.72,12.72,0,0,0-12.7-12.7Z"/><polygon class="cls-1" points="435.4 98.7 359.4 98.7 366.1 43 428.6 43 435.4 98.7"/><rect class="cls-5" x="370.8" y="98.7" width="1.2" height="21.4"/><circle class="cls-5" cx="371.4" cy="120.1" r="1.5"/><polygon class="cls-6" points="418.7 98.7 405.6 98.7 402.9 43 414.9 43 418.7 98.7"/><rect class="cls-3" x="393.6" y="98.7" width="7.6" height="228.7"/><path class="cls-3" d="M409.4,327.4H385.3a5.12,5.12,0,0,1,5.1-5.1h13.8a5.14,5.14,0,0,1,5.2,5.1Z"/><rect class="cls-5" x="393.6" y="98.7" width="7.6" height="4.6"/><path class="cls-3" d="M388.6,219.3h0a10.87,10.87,0,0,0-1.8.1,26.18,26.18,0,0,0-24.3,27.9,27.45,27.45,0,0,0,.8,5,130.5,130.5,0,0,1,4.1,34.1v33.5a4.44,4.44,0,0,0,4.4,4.4h72v-105Z"/><path class="cls-6" d="M470,245.5a26.2,26.2,0,1,0-52.4,0,25.91,25.91,0,0,0,.9,6.8,130.5,130.5,0,0,1,4.1,34.1v33.5a4.44,4.44,0,0,0,4.4,4.4h33.5a4.44,4.44,0,0,0,4.4-4.4h0V284.5a118.25,118.25,0,0,1,4-31.9A25.55,25.55,0,0,0,470,245.5Z"/><rect class="cls-3" x="311.3" y="260.5" width="119.3" height="63.7"/><path class="cls-5" d="M355.8,177.1h-88a17.88,17.88,0,0,0-18.2,17.6,16.2,16.2,0,0,0,.1,2.2l6.7,78H384l-6.7-78A22,22,0,0,0,355.8,177.1Z"/><path class="cls-6" d="M381.7,177.1H291.8a17,17,0,0,0-17.3,16.7,16.2,16.2,0,0,0,.1,2.2l6.8,79H409l-6.8-79A21,21,0,0,0,381.7,177.1Z"/><path class="cls-5" d="M313.3,254.7H428.6a6.49,6.49,0,0,1,6.5,6.5V274a6.49,6.49,0,0,1-6.5,6.5H313.3a2,2,0,0,1-2-2v-22A2,2,0,0,1,313.3,254.7Z"/><path class="cls-3" d="M247.1,219.3h0a10.87,10.87,0,0,0-1.8.1A26.18,26.18,0,0,0,221,247.3a28.91,28.91,0,0,0,.8,5,130.5,130.5,0,0,1,4.1,34.1v33.5a4.44,4.44,0,0,0,4.4,4.4h72v-105Z"/><path class="cls-6" d="M328.4,245.5a26.15,26.15,0,0,0-52.3.1,24.44,24.44,0,0,0,.9,6.6,130.5,130.5,0,0,1,4.1,34.1v33.5a4.44,4.44,0,0,0,4.4,4.4H319a4.44,4.44,0,0,0,4.4-4.4h0V284.4a118.34,118.34,0,0,1,4.1-31.9A28,28,0,0,0,328.4,245.5Z"/><path class="cls-5" d="M430.5,327.4H248.9a3.16,3.16,0,0,1-3.2-3.2h188A3.16,3.16,0,0,1,430.5,327.4Z"/><rect class="cls-2" x="46.1" y="34.8" width="21.9" height="292.6"/><rect class="cls-6" x="68" y="34.8" width="192.4" height="292.6"/><rect class="cls-2" x="71.6" y="39.1" width="185.2" height="288.3"/><rect class="cls-5" x="71.6" y="39.1" width="15.5" height="288.3"/><rect class="cls-6" x="71.6" y="271.7" width="187.1" height="4.3"/><rect class="cls-6" x="71.6" y="211.3" width="187.1" height="4.3"/><rect class="cls-6" x="71.6" y="150.9" width="187.1" height="4.3"/><rect class="cls-6" x="71.6" y="90.5" width="187.1" height="4.3"/><rect class="cls-7" x="88.1" y="49.5" width="27.8" height="41"/><path class="cls-3" d="M113.6,49.5h5.3a1.54,1.54,0,0,1,1.5,1.5V89a1.54,1.54,0,0,1-1.5,1.5h-5.3a1.54,1.54,0,0,1-1.5-1.5V51A1.47,1.47,0,0,1,113.6,49.5Z"/><rect class="cls-7" x="78.7" y="49.5" width="27.8" height="41"/><path class="cls-2" d="M104.2,49.5h5.3A1.54,1.54,0,0,1,111,51V89a1.54,1.54,0,0,1-1.5,1.5h-5.3a1.54,1.54,0,0,1-1.5-1.5V51A1.54,1.54,0,0,1,104.2,49.5Z"/><polygon class="cls-7" points="71.6 49.5 95.6 49.5 93.7 90.5 71.6 90.5 71.6 49.5"/><path class="cls-3" d="M98.7,49.5H93.1a1.73,1.73,0,0,0-1.5,1.7L89.8,88.9a1.62,1.62,0,0,0,1.3,1.7h5.7a1.73,1.73,0,0,0,1.5-1.7l1.8-37.7a1.5,1.5,0,0,0-1.4-1.7Z"/><rect class="cls-7" x="216.8" y="55.9" width="21.1" height="34.6"/><path class="cls-3" d="M236.2,55.9h3.9a1.16,1.16,0,0,1,1.2,1.2V89.3a1.16,1.16,0,0,1-1.2,1.2h-3.9a1.16,1.16,0,0,1-1.2-1.2V57.1A1.16,1.16,0,0,1,236.2,55.9Z"/><rect class="cls-7" x="209.7" y="55.9" width="21.1" height="34.6"/><path class="cls-2" d="M229.1,55.9H233a1.16,1.16,0,0,1,1.2,1.2V89.3a1.16,1.16,0,0,1-1.2,1.2h-3.9a1.16,1.16,0,0,1-1.2-1.2V57.1A1.16,1.16,0,0,1,229.1,55.9Z"/><polygon class="cls-7" points="204.3 55.9 222.5 55.9 221.1 90.5 204.3 90.5 204.3 55.9"/><path class="cls-3" d="M224.9,55.9h-4.3a1.27,1.27,0,0,0-1.1,1.4l-1.3,31.8c0,.8.4,1.4,1,1.4h4.3a1.27,1.27,0,0,0,1.1-1.4l1.3-31.8C225.9,56.5,225.4,55.9,224.9,55.9Z"/><rect class="cls-7" x="189.6" y="55.9" width="21.1" height="34.6"/><path class="cls-3" d="M209,55.9h3.9a1.16,1.16,0,0,1,1.2,1.2V89.3a1.16,1.16,0,0,1-1.2,1.2H209a1.16,1.16,0,0,1-1.2-1.2V57.1A1.16,1.16,0,0,1,209,55.9Z"/><rect class="cls-7" x="182.5" y="55.9" width="21.1" height="34.6"/><path class="cls-2" d="M201.9,55.9h3.9a1.16,1.16,0,0,1,1.2,1.2V89.3a1.16,1.16,0,0,1-1.2,1.2h-3.9a1.16,1.16,0,0,1-1.2-1.2V57.1A1.16,1.16,0,0,1,201.9,55.9Z"/><polygon class="cls-7" points="177.1 55.9 195.3 55.9 193.9 90.5 177.1 90.5 177.1 55.9"/><path class="cls-3" d="M197.7,55.9h-4.3a1.27,1.27,0,0,0-1.1,1.4L191,89.1c0,.8.4,1.4,1,1.4h4.3a1.27,1.27,0,0,0,1.1-1.4l1.3-31.8C198.7,56.5,198.3,55.9,197.7,55.9Z"/><rect class="cls-7" x="149.9" y="53.3" width="14.7" height="37.2"/><path class="cls-3" d="M163.6,53.3h2.3a1.11,1.11,0,0,1,1.1,1.1V89.5a1.11,1.11,0,0,1-1.1,1.1h-2.3a1.11,1.11,0,0,1-1.1-1.1V54.4A1.11,1.11,0,0,1,163.6,53.3Z"/><rect class="cls-7" x="137.6" y="49.5" width="16.2" height="41"/><path class="cls-6" d="M152.7,49.5h2.6a1.22,1.22,0,0,1,1.2,1.2V89.4a1.22,1.22,0,0,1-1.2,1.2h-2.6a1.22,1.22,0,0,1-1.2-1.2V50.7A1.29,1.29,0,0,1,152.7,49.5Z"/><polygon class="cls-7" points="133.5 49.5 147.4 49.5 146.3 90.5 133.5 90.5 133.5 49.5"/><path class="cls-3" d="M149.3,49.5H146c-.4,0-.8.7-.9,1.7l-1,37.7c0,.9.3,1.7.8,1.7h3.3c.4,0,.8-.8.9-1.7l1-37.7C150,50.2,149.7,49.5,149.3,49.5Z"/><rect class="cls-7" x="162.2" y="109.9" width="27.8" height="41"/><path class="cls-3" d="M187.7,109.9H193a1.54,1.54,0,0,1,1.5,1.5v38a1.54,1.54,0,0,1-1.5,1.5h-5.3a1.54,1.54,0,0,1-1.5-1.5v-38A1.42,1.42,0,0,1,187.7,109.9Z"/><rect class="cls-7" x="152.8" y="109.9" width="27.8" height="41"/><path class="cls-2" d="M178.3,109.9h5.3a1.54,1.54,0,0,1,1.5,1.5v38a1.54,1.54,0,0,1-1.5,1.5h-5.3a1.54,1.54,0,0,1-1.5-1.5v-38A1.54,1.54,0,0,1,178.3,109.9Z"/><polygon class="cls-7" points="145.7 109.9 169.7 109.9 167.8 150.9 145.7 150.9 145.7 109.9"/><path class="cls-3" d="M172.8,109.9h-5.6a1.73,1.73,0,0,0-1.5,1.7l-1.8,37.7a1.54,1.54,0,0,0,1.2,1.7h5.7a1.73,1.73,0,0,0,1.5-1.7l1.8-37.7a1.43,1.43,0,0,0-1.3-1.7Z"/><rect class="cls-7" x="204.9" y="116.3" width="17.1" height="34.6"/><path class="cls-3" d="M220.6,116.3h3a1.11,1.11,0,0,1,1.1,1.1v32.5a1.11,1.11,0,0,1-1.1,1.1h-3a1.11,1.11,0,0,1-1.1-1.1V117.4A1.11,1.11,0,0,1,220.6,116.3Z"/><rect class="cls-7" x="199.1" y="116.3" width="17.1" height="34.6"/><path class="cls-2" d="M214.9,116.3h3a1.11,1.11,0,0,1,1.1,1.1v32.5a1.11,1.11,0,0,1-1.1,1.1h-3a1.11,1.11,0,0,1-1.1-1.1V117.4A1.11,1.11,0,0,1,214.9,116.3Z"/><polygon class="cls-7" points="194.8 116.3 209.5 116.3 208.3 150.9 194.8 150.9 194.8 116.3"/><path class="cls-3" d="M211.4,116.3H208c-.5,0-.9.6-.9,1.4L206,149.5c0,.8.3,1.4.8,1.4h3.4c.5,0,.9-.6.9-1.4l1.1-31.8C212.2,116.9,211.9,116.3,211.4,116.3Z"/><rect class="cls-7" x="233.3" y="122.2" width="14.1" height="28.7"/><path class="cls-3" d="M246.4,122.2h2.5a.9.9,0,0,1,.9.9V150a.9.9,0,0,1-.9.9h-2.5a.9.9,0,0,1-.9-.9V123.1A.9.9,0,0,1,246.4,122.2Z"/><rect class="cls-7" x="228.6" y="122.2" width="14.1" height="28.7"/><path class="cls-2" d="M241.6,122.2h2.5a.9.9,0,0,1,.9.9V150a.9.9,0,0,1-.9.9h-2.5a.9.9,0,0,1-.9-.9V123.1A.9.9,0,0,1,241.6,122.2Z"/><polygon class="cls-7" points="224.9 122.2 237.1 122.2 236.2 150.9 224.9 150.9 224.9 122.2"/><path class="cls-3" d="M238.7,122.2h-2.9c-.4,0-.7.5-.7,1.2l-.9,26.4c0,.6.3,1.2.7,1.2h2.9c.4,0,.7-.5.7-1.2l.9-26.4C239.4,122.7,239.1,122.2,238.7,122.2Z"/><rect class="cls-7" x="117.6" y="116.3" width="21.1" height="34.6"/><path class="cls-3" d="M137,116.3h3.9a1.16,1.16,0,0,1,1.2,1.2v32.2a1.16,1.16,0,0,1-1.2,1.2H137a1.16,1.16,0,0,1-1.2-1.2V117.5A1.16,1.16,0,0,1,137,116.3Z"/><rect class="cls-7" x="110.5" y="116.3" width="21.1" height="34.6"/><path class="cls-2" d="M129.9,116.3h3.9a1.16,1.16,0,0,1,1.2,1.2v32.2a1.16,1.16,0,0,1-1.2,1.2h-3.9a1.16,1.16,0,0,1-1.2-1.2V117.5A1.1,1.1,0,0,1,129.9,116.3Z"/><polygon class="cls-7" points="105.1 116.3 123.3 116.3 121.9 150.9 105.1 150.9 105.1 116.3"/><path class="cls-3" d="M125.7,116.3h-4.3a1.24,1.24,0,0,0-1.1,1.4L119,149.5c0,.8.4,1.4,1,1.4h4.3a1.24,1.24,0,0,0,1.1-1.4l1.3-31.8C126.7,116.9,126.2,116.3,125.7,116.3Z"/><rect class="cls-7" x="88" y="113.7" width="14.7" height="37.2"/><path class="cls-3" d="M101.7,113.7H104a1.11,1.11,0,0,1,1.1,1.1v35.1A1.11,1.11,0,0,1,104,151h-2.3a1.11,1.11,0,0,1-1.1-1.1V114.8A1.18,1.18,0,0,1,101.7,113.7Z"/><rect class="cls-7" x="75.8" y="109.9" width="16.2" height="41"/><path class="cls-6" d="M90.9,109.9h2.6a1.22,1.22,0,0,1,1.2,1.2v38.7a1.22,1.22,0,0,1-1.2,1.2H90.9a1.22,1.22,0,0,1-1.2-1.2V111A1.13,1.13,0,0,1,90.9,109.9Z"/><polygon class="cls-7" points="71.6 109.9 85.6 109.9 84.5 150.9 71.6 150.9 71.6 109.9"/><path class="cls-3" d="M87.4,109.9H84.1c-.4,0-.8.7-.8,1.7l-1,37.7c0,.9.3,1.7.8,1.7h3.2c.4,0,.8-.8.8-1.7l1-37.7C88.2,110.6,87.9,109.9,87.4,109.9Z"/><rect class="cls-7" x="88.1" y="170.3" width="27.8" height="41"/><path class="cls-3" d="M113.6,170.3h5.3a1.54,1.54,0,0,1,1.5,1.5v38a1.54,1.54,0,0,1-1.5,1.5h-5.3a1.54,1.54,0,0,1-1.5-1.5v-38A1.47,1.47,0,0,1,113.6,170.3Z"/><rect class="cls-7" x="78.7" y="170.3" width="27.8" height="41"/><path class="cls-2" d="M104.2,170.3h5.3a1.54,1.54,0,0,1,1.5,1.5v38a1.54,1.54,0,0,1-1.5,1.5h-5.3a1.54,1.54,0,0,1-1.5-1.5v-38A1.54,1.54,0,0,1,104.2,170.3Z"/><polygon class="cls-7" points="71.6 170.3 95.6 170.3 93.7 211.3 71.6 211.3 71.6 170.3"/><path class="cls-3" d="M98.7,170.3H93.1a1.73,1.73,0,0,0-1.5,1.7l-1.8,37.7a1.62,1.62,0,0,0,1.3,1.7h5.7a1.73,1.73,0,0,0,1.5-1.7l1.8-37.7a1.5,1.5,0,0,0-1.4-1.7Z"/><rect class="cls-7" x="216.8" y="176.7" width="21.1" height="34.6"/><path class="cls-3" d="M236.2,176.7h3.9a1.16,1.16,0,0,1,1.2,1.2v32.2a1.16,1.16,0,0,1-1.2,1.2h-3.9a1.16,1.16,0,0,1-1.2-1.2V177.9A1.16,1.16,0,0,1,236.2,176.7Z"/><rect class="cls-7" x="209.7" y="176.7" width="21.1" height="34.6"/><path class="cls-2" d="M229.1,176.7H233a1.16,1.16,0,0,1,1.2,1.2v32.2a1.16,1.16,0,0,1-1.2,1.2h-3.9a1.16,1.16,0,0,1-1.2-1.2V177.9A1.16,1.16,0,0,1,229.1,176.7Z"/><polygon class="cls-7" points="204.3 176.7 222.5 176.7 221.1 211.3 204.3 211.3 204.3 176.7"/><path class="cls-3" d="M224.9,176.7h-4.3a1.27,1.27,0,0,0-1.1,1.4l-1.3,31.8c0,.8.4,1.4,1,1.4h4.3a1.27,1.27,0,0,0,1.1-1.4l1.3-31.8C225.9,177.3,225.4,176.7,224.9,176.7Z"/><rect class="cls-7" x="189.6" y="176.7" width="21.1" height="34.6"/><path class="cls-3" d="M209,176.7h3.9a1.16,1.16,0,0,1,1.2,1.2v32.2a1.16,1.16,0,0,1-1.2,1.2H209a1.16,1.16,0,0,1-1.2-1.2V177.9A1.16,1.16,0,0,1,209,176.7Z"/><rect class="cls-7" x="182.5" y="176.7" width="21.1" height="34.6"/><path class="cls-2" d="M201.9,176.7h3.9a1.16,1.16,0,0,1,1.2,1.2v32.2a1.16,1.16,0,0,1-1.2,1.2h-3.9a1.16,1.16,0,0,1-1.2-1.2V177.9A1.16,1.16,0,0,1,201.9,176.7Z"/><polygon class="cls-7" points="177.1 176.7 195.3 176.7 193.9 211.3 177.1 211.3 177.1 176.7"/><path class="cls-3" d="M197.7,176.7h-4.3a1.27,1.27,0,0,0-1.1,1.4L191,209.9c0,.8.4,1.4,1,1.4h4.3a1.27,1.27,0,0,0,1.1-1.4l1.3-31.8C198.7,177.3,198.3,176.7,197.7,176.7Z"/><rect class="cls-7" x="149.9" y="174.1" width="14.7" height="37.2"/><path class="cls-3" d="M163.6,174.1h2.3a1.11,1.11,0,0,1,1.1,1.1v35.1a1,1,0,0,1-1.1,1h-2.3a1.1,1.1,0,0,1-1.1-1V175.2A1.11,1.11,0,0,1,163.6,174.1Z"/><rect class="cls-7" x="137.6" y="170.3" width="16.2" height="41"/><path class="cls-6" d="M152.7,170.3h2.6a1.22,1.22,0,0,1,1.2,1.2v38.7a1.22,1.22,0,0,1-1.2,1.2h-2.6a1.22,1.22,0,0,1-1.2-1.2V171.5A1.29,1.29,0,0,1,152.7,170.3Z"/><polygon class="cls-7" points="133.5 170.3 147.4 170.3 146.3 211.3 133.5 211.3 133.5 170.3"/><path class="cls-3" d="M149.3,170.3H146c-.4,0-.8.7-.9,1.7l-1,37.7c0,.9.3,1.7.8,1.7h3.3c.4,0,.8-.8.9-1.7l1-37.7C150,171,149.7,170.3,149.3,170.3Z"/><rect class="cls-7" x="82.2" y="286.4" width="17.8" height="41"/><path class="cls-3" d="M98.7,286.4h3a1.16,1.16,0,0,1,1.2,1.2v38.6a1.16,1.16,0,0,1-1.2,1.2h-3a1.16,1.16,0,0,1-1.2-1.2V287.6A1.22,1.22,0,0,1,98.7,286.4Z"/><rect class="cls-7" x="76.2" y="286.4" width="17.8" height="41"/><path class="cls-2" d="M92.7,286.4h3a1.16,1.16,0,0,1,1.2,1.2v38.6a1.16,1.16,0,0,1-1.2,1.2h-3a1.16,1.16,0,0,1-1.2-1.2V287.6A1.22,1.22,0,0,1,92.7,286.4Z"/><polygon class="cls-7" points="71.6 286.4 87 286.4 85.8 327.4 71.6 327.4 71.6 286.4"/><path class="cls-3" d="M89,286.4H85.4c-.5,0-.9.8-.9,1.7l-1.1,37.7c0,.9.3,1.7.8,1.7h3.6c.5,0,.9-.7.9-1.7l1.1-37.7C89.9,287.1,89.5,286.4,89,286.4Z"/><rect class="cls-7" x="231.4" y="292.8" width="18.6" height="34.6"/><path class="cls-3" d="M248.5,292.8h3.3a1.11,1.11,0,0,1,1.1,1.1v32.4a1.11,1.11,0,0,1-1.1,1.1h-3.3a1.11,1.11,0,0,1-1.1-1.1V293.9A1.11,1.11,0,0,1,248.5,292.8Z"/><rect class="cls-7" x="225.1" y="292.8" width="18.6" height="34.6"/><path class="cls-2" d="M242.2,292.8h3.3a1.11,1.11,0,0,1,1.1,1.1v32.4a1.11,1.11,0,0,1-1.1,1.1h-3.3a1.11,1.11,0,0,1-1.1-1.1V293.9A1.11,1.11,0,0,1,242.2,292.8Z"/><polygon class="cls-7" points="220.3 292.8 236.4 292.8 235.1 327.4 220.3 327.4 220.3 292.8"/><path class="cls-3" d="M238.5,292.8h-3.8c-.5,0-1,.6-1,1.4L232.5,326c0,.8.4,1.4.9,1.4h3.8c.5,0,.9-.6,1-1.4l1.2-31.8C239.4,293.4,239,292.8,238.5,292.8Z"/><rect class="cls-7" x="207.4" y="292.8" width="18.6" height="34.6"/><path class="cls-3" d="M224.5,292.8h3.3a1.11,1.11,0,0,1,1.1,1.1v32.4a1.11,1.11,0,0,1-1.1,1.1h-3.3a1.11,1.11,0,0,1-1.1-1.1V293.9A1.11,1.11,0,0,1,224.5,292.8Z"/><rect class="cls-7" x="201.1" y="292.8" width="18.6" height="34.6"/><path class="cls-2" d="M218.3,292.8h3.3a1.11,1.11,0,0,1,1.1,1.1v32.4a1.11,1.11,0,0,1-1.1,1.1h-3.3a1.11,1.11,0,0,1-1.1-1.1V293.9A1,1,0,0,1,218.3,292.8Z"/><polygon class="cls-7" points="196.4 292.8 212.4 292.8 211.1 327.4 196.4 327.4 196.4 292.8"/><path class="cls-3" d="M214.5,292.8h-3.8c-.5,0-.9.6-1,1.4L208.6,326c0,.8.4,1.4.9,1.4h3.8c.5,0,1-.6,1-1.4l1.2-31.8C215.4,293.4,215,292.8,214.5,292.8Z"/><rect class="cls-7" x="188.3" y="290.2" width="13" height="37.2"/><path class="cls-3" d="M200.4,290.2h1.9a.94.94,0,0,1,1,1v35.3a.94.94,0,0,1-1,1h-1.9a.94.94,0,0,1-1-1V291.2A1,1,0,0,1,200.4,290.2Z"/><rect class="cls-7" x="177.5" y="286.4" width="14.3" height="41"/><path class="cls-6" d="M190.9,286.4H193a1.11,1.11,0,0,1,1.1,1.1v38.9a1.11,1.11,0,0,1-1.1,1.1h-2.1a1.11,1.11,0,0,1-1.1-1.1V287.5A1,1,0,0,1,190.9,286.4Z"/><polygon class="cls-7" points="173.8 286.4 186.2 286.4 185.2 327.4 173.8 327.4 173.8 286.4"/><path class="cls-3" d="M187.8,286.4h-2.9c-.4,0-.7.8-.8,1.7l-.9,37.7c0,.9.3,1.7.7,1.7h2.9c.4,0,.7-.7.8-1.7l.9-37.7C188.4,287.1,188.1,286.4,187.8,286.4Z"/><rect class="cls-7" x="162.2" y="230.7" width="27.8" height="41"/><path class="cls-3" d="M187.7,230.7H193a1.54,1.54,0,0,1,1.5,1.5v38a1.54,1.54,0,0,1-1.5,1.5h-5.3a1.54,1.54,0,0,1-1.5-1.5v-38A1.42,1.42,0,0,1,187.7,230.7Z"/><rect class="cls-7" x="152.8" y="230.7" width="27.8" height="41"/><path class="cls-2" d="M178.3,230.7h5.3a1.54,1.54,0,0,1,1.5,1.5v38a1.54,1.54,0,0,1-1.5,1.5h-5.3a1.54,1.54,0,0,1-1.5-1.5v-38A1.54,1.54,0,0,1,178.3,230.7Z"/><polygon class="cls-7" points="145.7 230.7 169.7 230.7 167.8 271.7 145.7 271.7 145.7 230.7"/><path class="cls-3" d="M172.8,230.7h-5.6a1.73,1.73,0,0,0-1.5,1.7l-1.8,37.7a1.54,1.54,0,0,0,1.2,1.7h5.7a1.73,1.73,0,0,0,1.5-1.7l1.8-37.7a1.43,1.43,0,0,0-1.3-1.7Z"/><rect class="cls-7" x="204.9" y="237.1" width="17.1" height="34.6"/><path class="cls-3" d="M220.6,237.1h3a1.11,1.11,0,0,1,1.1,1.1v32.5a1.11,1.11,0,0,1-1.1,1.1h-3a1.11,1.11,0,0,1-1.1-1.1V238.2A1.11,1.11,0,0,1,220.6,237.1Z"/><rect class="cls-7" x="199.1" y="237.1" width="17.1" height="34.6"/><path class="cls-2" d="M214.9,237.1h3a1.11,1.11,0,0,1,1.1,1.1v32.5a1.11,1.11,0,0,1-1.1,1.1h-3a1.11,1.11,0,0,1-1.1-1.1V238.2A1.11,1.11,0,0,1,214.9,237.1Z"/><polygon class="cls-7" points="194.8 237.1 209.5 237.1 208.3 271.7 194.8 271.7 194.8 237.1"/><path class="cls-3" d="M211.4,237.1H208c-.5,0-.9.6-.9,1.4L206,270.3c0,.8.3,1.4.8,1.4h3.4c.5,0,.9-.6.9-1.4l1.1-31.8C212.2,237.7,211.9,237.1,211.4,237.1Z"/><rect class="cls-7" x="233.3" y="243" width="14.1" height="28.7"/><path class="cls-3" d="M246.4,243h2.5a.9.9,0,0,1,.9.9v26.9a.9.9,0,0,1-.9.9h-2.5a.9.9,0,0,1-.9-.9V243.9A.9.9,0,0,1,246.4,243Z"/><rect class="cls-7" x="228.6" y="243" width="14.1" height="28.7"/><path class="cls-2" d="M241.6,243h2.5a.9.9,0,0,1,.9.9v26.9a.9.9,0,0,1-.9.9h-2.5a.9.9,0,0,1-.9-.9V243.9A.9.9,0,0,1,241.6,243Z"/><polygon class="cls-7" points="224.9 243 237.1 243 236.2 271.7 224.9 271.7 224.9 243"/><path class="cls-3" d="M238.7,243h-2.9c-.4,0-.7.5-.7,1.2l-.9,26.4c0,.6.3,1.2.7,1.2h2.9c.4,0,.7-.5.7-1.2l.9-26.4C239.4,243.5,239.1,243,238.7,243Z"/><rect class="cls-7" x="117.6" y="237.1" width="21.1" height="34.6"/><path class="cls-3" d="M137,237.1h3.9a1.16,1.16,0,0,1,1.2,1.2v32.2a1.16,1.16,0,0,1-1.2,1.2H137a1.16,1.16,0,0,1-1.2-1.2V238.3A1.16,1.16,0,0,1,137,237.1Z"/><rect class="cls-7" x="110.5" y="237.1" width="21.1" height="34.6"/><path class="cls-2" d="M129.9,237.1h3.9a1.16,1.16,0,0,1,1.2,1.2v32.2a1.16,1.16,0,0,1-1.2,1.2h-3.9a1.16,1.16,0,0,1-1.2-1.2V238.3A1.1,1.1,0,0,1,129.9,237.1Z"/><polygon class="cls-7" points="105.1 237.1 123.3 237.1 121.9 271.7 105.1 271.7 105.1 237.1"/><path class="cls-3" d="M125.7,237.1h-4.3a1.24,1.24,0,0,0-1.1,1.4L119,270.3c0,.8.4,1.4,1,1.4h4.3a1.24,1.24,0,0,0,1.1-1.4l1.3-31.8C126.7,237.7,126.2,237.1,125.7,237.1Z"/><rect class="cls-7" x="88" y="234.5" width="14.7" height="37.2"/><path class="cls-3" d="M101.7,234.5H104a1.1,1.1,0,0,1,1.1,1v35.1a1,1,0,0,1-1.1,1h-2.3a1.1,1.1,0,0,1-1.1-1V235.5A1.18,1.18,0,0,1,101.7,234.5Z"/><rect class="cls-7" x="75.8" y="230.7" width="16.2" height="41"/><path class="cls-6" d="M90.9,230.7h2.6a1.22,1.22,0,0,1,1.2,1.2v38.7a1.22,1.22,0,0,1-1.2,1.2H90.9a1.22,1.22,0,0,1-1.2-1.2V231.9A1.16,1.16,0,0,1,90.9,230.7Z"/><polygon class="cls-7" points="71.6 230.7 85.6 230.7 84.5 271.7 71.6 271.7 71.6 230.7"/><path class="cls-3" d="M87.4,230.7H84.1c-.4,0-.8.8-.8,1.7l-1,37.7c0,.9.3,1.7.8,1.7h3.2c.4,0,.8-.8.8-1.7l1-37.7C88.2,231.4,87.9,230.7,87.4,230.7Z"/><rect class="cls-7" x="154.3" y="283.1" width="20.6" height="44.3"/><path class="cls-3" d="M173.4,283.1h3.5a1.37,1.37,0,0,1,1.4,1.4V326a1.37,1.37,0,0,1-1.4,1.4h-3.5A1.37,1.37,0,0,1,172,326V284.4A1.49,1.49,0,0,1,173.4,283.1Z"/><rect class="cls-7" x="147.4" y="283.1" width="20.6" height="44.3"/><path class="cls-2" d="M166.5,283.1H170a1.37,1.37,0,0,1,1.4,1.4V326a1.37,1.37,0,0,1-1.4,1.4h-3.5a1.37,1.37,0,0,1-1.4-1.4V284.4A1.35,1.35,0,0,1,166.5,283.1Z"/><polygon class="cls-7" points="142.1 283.1 159.9 283.1 158.5 327.4 142.1 327.4 142.1 283.1"/><path class="cls-3" d="M162.2,283.1H158c-.6,0-1.1.8-1.1,1.8l-1.3,40.7c0,1,.4,1.8,1,1.8h4.2c.6,0,1-.8,1.1-1.8l1.3-40.7C163.2,283.9,162.8,283.1,162.2,283.1Z"/><rect class="cls-7" x="123.6" y="288.8" width="17.8" height="38.6"/><path class="cls-3" d="M140.1,288.8h3a1.16,1.16,0,0,1,1.2,1.2v36.2a1.16,1.16,0,0,1-1.2,1.2h-3a1.16,1.16,0,0,1-1.2-1.2V290A1.16,1.16,0,0,1,140.1,288.8Z"/><rect class="cls-7" x="117.6" y="288.8" width="17.8" height="38.6"/><path class="cls-2" d="M134.1,288.8h3a1.16,1.16,0,0,1,1.2,1.2v36.2a1.16,1.16,0,0,1-1.2,1.2h-3a1.16,1.16,0,0,1-1.2-1.2V290A1.16,1.16,0,0,1,134.1,288.8Z"/><polygon class="cls-7" points="113 288.8 128.4 288.8 127.2 327.4 113 327.4 113 288.8"/><path class="cls-3" d="M130.4,288.8h-3.6c-.5,0-.9.7-.9,1.6l-1.1,35.5c0,.9.3,1.6.8,1.6h3.6c.5,0,.9-.7.9-1.6l1.1-35.5C131.3,289.5,130.9,288.8,130.4,288.8Z"/></g><g id="freepik--Shadow--inject-26"><ellipse id="freepik--path--inject-26" class="cls-6" cx="250" cy="361.2" rx="193.9" ry="11.3"/></g><g id="freepik--Books--inject-26"><path class="cls-8" d="M230.1,358.6a2,2,0,0,1-1.3,2.5,1.7,1.7,0,0,1-.7.1H88.8c-4.3,0-4.3-28.3,0-28.3H228.1a2,2,0,0,1,2.1,1.9,1.7,1.7,0,0,1-.1.7C228.4,340.9,228.4,353.2,230.1,358.6Z"/><path class="cls-9" d="M229.9,336.2H145.4c-3.3,0-3.3,21.7,0,21.7h84.5C228.5,352.5,228.5,341.7,229.9,336.2Z"/><path class="cls-10" d="M141.2,358.6a2,2,0,0,1-1.3,2.5,1.7,1.7,0,0,1-.7.1H88.8c-4.3,0-4.3-28.3,0-28.3h50.4a2,2,0,0,1,2.1,1.9,1.7,1.7,0,0,1-.1.7C139.5,340.9,139.5,353.2,141.2,358.6Z"/><path class="cls-8" d="M110.3,332.9H98.8c-4.3,0-4.3,28.3,0,28.3h11.5C106,361.2,106,332.9,110.3,332.9Z"/><path class="cls-8" d="M119.4,332.9h-4.5c-4.3,0-4.3,28.3,0,28.3h4.5C115,361.2,115,332.9,119.4,332.9Z"/><path class="cls-11" d="M80.7,330.6c-.5,1.2.7,2.4,2.3,2.4H208.3c5.1,0,5.1-25.5,0-25.5H83c-1.6,0-2.8,1.2-2.3,2.4C82.7,314.6,82.7,325.7,80.7,330.6Z"/><path class="cls-10" d="M80.7,330.6c-.5,1.2.7,2.4,2.3,2.4h61.4c5.1,0,5.1-25.5,0-25.5H83c-1.6,0-2.8,1.2-2.3,2.4C82.7,314.6,82.7,325.7,80.7,330.6Z"/><path class="cls-9" d="M80.9,310.4h61c3.9,0,3.9,19.5,0,19.5h-61C82.6,325,82.6,315.3,80.9,310.4Z"/><path class="cls-12" d="M162.2,313.1c-.4-1.1.7-2.2,2.2-2.2h35.1c3.7,0,3.7,18.6,0,18.6H164.4c-1.5,0-2.6-1.1-2.2-2.2C163.3,322.7,162.8,317.8,162.2,313.1Z"/><path class="cls-8" d="M415.7,319.2a2.32,2.32,0,0,1-1.5,2.9,1.27,1.27,0,0,1-.6.1H266.5c-4.6,0-4.6-33,0-33H413.7a2.35,2.35,0,0,1,2.2,2.5.9.9,0,0,1-.1.5C413.9,298.6,413.9,312.9,415.7,319.2Z"/><path class="cls-13" d="M415.7,319.2a2.32,2.32,0,0,1-1.5,2.9,1.27,1.27,0,0,1-.6.1H266.5c-4.6,0-4.6-33,0-33H413.7a2.35,2.35,0,0,1,2.2,2.5.9.9,0,0,1-.1.5C413.9,298.6,413.9,312.9,415.7,319.2Z"/><path class="cls-9" d="M415.5,293.1H326.2c-3.5,0-3.5,25.3,0,25.3h89.3C414,312,414,299.5,415.5,293.1Z"/><path class="cls-14" d="M321.8,319.2a2.32,2.32,0,0,1-1.5,2.9,1.27,1.27,0,0,1-.6.1H266.5c-4.6,0-4.6-33,0-33h53.2a2.35,2.35,0,0,1,2.2,2.5.9.9,0,0,1-.1.5C320,298.6,320,312.9,321.8,319.2Z"/><path class="cls-13" d="M300.2,291.7a1.77,1.77,0,0,0-1-2.3.9.9,0,0,0-.5-.1H278.4c-4.6,0-4.6,33,0,33h20.3a1.77,1.77,0,0,0,1.6-1.9c0-.2-.1-.3-.1-.5C298.1,313.7,298.1,297.8,300.2,291.7Z"/><path class="cls-8" d="M405.2,357.6a2.88,2.88,0,0,1-2,3.5,2.77,2.77,0,0,1-.9.1h-153c-6.5,0-6.5-39,0-39h153a2.82,2.82,0,0,1,3,2.7,2.77,2.77,0,0,1-.1.9C402.6,333.2,402.6,350.2,405.2,357.6Z"/><path class="cls-12" d="M405.2,357.6a2.88,2.88,0,0,1-2,3.5,2.77,2.77,0,0,1-.9.1h-153c-6.5,0-6.5-39,0-39h153a2.82,2.82,0,0,1,3,2.7,2.77,2.77,0,0,1-.1.9C402.6,333.2,402.6,350.2,405.2,357.6Z"/><path class="cls-9" d="M404.9,326.8H312.4c-5,0-5,29.9,0,29.9h92.5C402.7,349.2,402.7,334.3,404.9,326.8Z"/><path class="cls-14" d="M306.1,357.6a2.88,2.88,0,0,1-2,3.5,2.77,2.77,0,0,1-.9.1H249.3c-6.5,0-6.5-39,0-39h53.9a2.82,2.82,0,0,1,3,2.7,2.77,2.77,0,0,1-.1.9C303.5,333.3,303.5,350.2,306.1,357.6Z"/><path class="cls-13" d="M273.8,323.6a.84.84,0,0,0-.3-1.2.9.9,0,0,0-.5-.1h-9.1c-6.5,0-6.5,39,0,39h9.2a1,1,0,0,0,1-.8.75.75,0,0,0-.1-.5C269.9,353.9,269.9,329.6,273.8,323.6Z"/><path class="cls-13" d="M288.1,323.6a.84.84,0,0,0-.3-1.2.9.9,0,0,0-.5-.1h-9.1c-6.5,0-6.5,39,0,39h9.1a1,1,0,0,0,1-.8.75.75,0,0,0-.1-.5C284.2,353.9,284.2,329.6,288.1,323.6Z"/><path class="cls-8" d="M403.7,268.5a25.2,25.2,0,0,0-1.9-8.1l.9-.4a27.13,27.13,0,0,1,2,8.4Z"/><rect class="cls-8" x="372.6" y="256.1" width="24.8" height="1"/><path class="cls-8" d="M235.5,286.5c-.5,1.4.7,2.7,2.4,2.7H397.4c5.4,0,5.4-29.6,0-29.6H237.9c-1.7,0-2.9,1.4-2.4,2.7C237.6,268,237.6,280.9,235.5,286.5Z"/><path class="cls-10" d="M235.5,286.5c-.5,1.4.7,2.7,2.4,2.7h92c5.4,0,5.4-29.6,0-29.6h-92c-1.7,0-2.9,1.4-2.4,2.7C237.6,268,237.6,280.9,235.5,286.5Z"/><path class="cls-9" d="M235.8,263.1h91.5c4.1,0,4.1,22.7,0,22.7H235.8C237.5,280.1,237.5,268.8,235.8,263.1Z"/><path class="cls-12" d="M348.7,266.2c-.4-1.3.8-2.6,2.4-2.6h37.1c3.9,0,3.9,21.6,0,21.6H351c-1.6,0-2.8-1.3-2.4-2.6C350,278.5,350,270.4,348.7,266.2Z"/></g><g id="freepik--Character--inject-26"><path class="cls-11" d="M220.6,43c-4.5,4.8-15.5,0-17.2,13.3-1.8,14.3,5.1,21.2-3.8,25-14,5.9-24,29.2-4.6,38s60.8-.4,56.2-18.3-3.7-27.5,1.8-35.9c7.3-11.1,5.7-25.4-.2-30.6C243.5,26.4,230.8,32,220.6,43Z"/><path class="cls-11" d="M244.7,100.5a.27.27,0,0,1-.3-.3c0-.2.1-.3.2-.3h0c3.9-.5,6.2-1.5,7.2-3,1.3-1.9.8-4.7,0-8.3-1.2-5.8-2.8-13.7,2.4-23.7,6.3-12.2,4-25.5-1.9-29.8-.1-.1-.2-.3-.1-.4s.3-.2.4-.1c6.2,4.5,8.5,18.2,2.1,30.6-5.1,9.8-3.5,17.6-2.3,23.3.8,3.7,1.4,6.6-.1,8.7-1.2,1.7-3.6,2.8-7.6,3.3Z"/><path class="cls-11" d="M194.2,83.2a12.1,12.1,0,0,1-1.9-.1.32.32,0,0,1-.3-.3h0a.32.32,0,0,1,.3-.3h0c2.8.4,4.9-.1,6.3-1.3,2.6-2.3,2.6-7.1,2.7-12.6,0-6.3.1-13.4,4.2-18.2.1-.1.3-.2.4,0s.2.3,0,.4c-3.9,4.7-4,11.7-4,17.8,0,5.7-.1,10.6-2.9,13.1A6.61,6.61,0,0,1,194.2,83.2Z"/><path class="cls-8" d="M292.4,259.6c-6.7-.1-9.3-.5-12.4-.5s-3.8.6-7,.5c-2.2-.1-2.2-2.7-1.3-4.4.6-1.4,1.5-2.8,2.2-4.5l8.5.6c1.1,3.2,6.8,4.6,11.8,5.7C296.1,257.5,295.1,259.6,292.4,259.6Z"/><path class="cls-11" d="M248.3,136.8s22.4,19.3,45,39.7c9.6,8.6-10.5,74.6-10.5,74.6-.4,1.4-7.9-.6-9-1.7,0,0-1.1-51.2,3.7-61.5-50.2-12.7-58-37.3-58-37.3l3.6-15.3Z"/><path class="cls-10" d="M222.8,156.6a54.63,54.63,0,0,0,9.9,10.5c5-5.9,3.6-15.3,3.6-15.3Z"/><path class="cls-11" d="M284.5,248.2c-.1,1-.4,2.8-.5,4.1a.88.88,0,0,1-.9.8,55.41,55.41,0,0,1-9.9-1.7.75.75,0,0,1-.5-.7l-.1-3.6a.88.88,0,0,1,.8-.9h.1l10.3,1.3c.5-.1.8.2.7.7Z"/><path class="cls-15" d="M284.5,248.2c-.1,1-.4,2.8-.5,4.1a.88.88,0,0,1-.9.8,55.41,55.41,0,0,1-9.9-1.7.75.75,0,0,1-.5-.7l-.1-3.6a.88.88,0,0,1,.8-.9h.1l10.3,1.3c.5-.1.8.2.7.7Z"/><path class="cls-8" d="M194.5,307.4c-6.8,0-9-2.5-12.8-3.3-3.2-.6-4.1-.3-6.6-.8-2.2-.4-2.3-1.9-1-4a28.64,28.64,0,0,0,2.2-4.7l10.3.7c1.1,2.8,3.5,8.3,7.3,9C197.4,305,197.2,307.4,194.5,307.4Z"/><path class="cls-11" d="M246.7,136.7s-23.6,42.1-33.2,68.1c-10,27.3-25.9,72-27.1,90.5-1.7.8-7.3.5-10.3-.7,0,0-2.8-64,16.5-89.6,4.6-54.9,12.2-63.7,20.3-70.4Z"/><path class="cls-11" d="M187.7,291.5a24.13,24.13,0,0,0-.1,3.8.82.82,0,0,1-.8.9c-3.8.4-9.2-.9-10.9-1.3a.86.86,0,0,1-.6-.7l-.1-3.6a.88.88,0,0,1,.8-.9h.1l10.8.9c.6.1.9.5.8.9Z"/><path class="cls-15" d="M187.7,291.5a24.13,24.13,0,0,0-.1,3.8.82.82,0,0,1-.8.9c-3.8.4-9.2-.9-10.9-1.3a.86.86,0,0,1-.6-.7l-.1-3.6a.88.88,0,0,1,.8-.9h.1l10.8.9c.6.1.9.5.8.9Z"/><path class="cls-16" d="M253,95.4c1,1.9,2.1,4,3.2,6s2.2,4,3.3,5.9c2.3,3.9,4.6,7.8,7.1,11.4l-1.4-1.2a10.11,10.11,0,0,0,3.3,1.6,33.92,33.92,0,0,0,4.3,1.1,35,35,0,0,0,4.8.6l4.9.3h.2a2.81,2.81,0,0,1,2.6,3,2.92,2.92,0,0,1-1.9,2.5,34.1,34.1,0,0,1-5.5,1.4,53.21,53.21,0,0,1-5.6.6,24.25,24.25,0,0,1-6-.4,20.93,20.93,0,0,1-6.4-2.1,3.13,3.13,0,0,1-1.1-.9l-.3-.3c-1.6-1.9-3.1-3.8-4.6-5.8s-2.8-4-4.1-6-2.5-4.1-3.7-6.2-2.3-4.2-3.4-6.5a5.73,5.73,0,0,1,2.9-7.4,6.19,6.19,0,0,1,7.4,2.4Z"/><path class="cls-8" d="M247.5,87.4c6.5,2.1,7.6,5.1,11.2,15.9-2.4,6.5-12,9.8-12,9.8S235.3,94.6,247.5,87.4Z"/><path class="cls-8" d="M256.4,101.5c-.4,3.6-1.3,7.9-3.2,16.2-1.5,7.1-1.5,21-3.9,21.7-4.6,2.3-16.1,1.4-36.3-4.8.6-10.4,1.9-17.5-1.6-41.3a8.59,8.59,0,0,1,6.9-9.9,10.87,10.87,0,0,1,1.8-.1,36.71,36.71,0,0,1,4.6.3,116.62,116.62,0,0,1,16.5,2.2c1.8.4,3.6.9,5.3,1.4A13.5,13.5,0,0,1,256.4,101.5Z"/><path class="cls-16" d="M185.9,142.8l2-1.8a3.09,3.09,0,0,0,1-2.7l-.6-4.8a5.75,5.75,0,0,0-3-4.5l-1-.6c-3.6,2.8-5.4,8.5-5.4,8.5l-.7,1.6a2.63,2.63,0,0,0,1.2,3.5h0l3.1,1.4A3.41,3.41,0,0,0,185.9,142.8Z"/><path class="cls-16" d="M290.9,118.8l-2.6-1a3.3,3.3,0,0,0-2.9.3l-4,2.7a5.89,5.89,0,0,0-2.6,4.8v1.2c4.1,1.9,10,.9,10,.9l1.7-.1a2.67,2.67,0,0,0,2.6-2.7h0l-.2-3.4A3.06,3.06,0,0,0,290.9,118.8Z"/><path class="cls-16" d="M217.3,96.5l-1.3.6-1.4.6c-.9.4-1.9.9-2.8,1.4-1.9,1-3.6,2-5.4,3.1s-3.5,2.2-5.1,3.4-3.2,2.5-4.7,3.8l.7-.8a17.1,17.1,0,0,0-1.3,2.3c-.4.9-.9,1.9-1.3,2.9-.8,2-1.6,4.1-2.3,6.3s-1.4,4.3-2.2,6.5l-2.2,6.6h0a2.77,2.77,0,0,1-3.5,1.8,2.71,2.71,0,0,1-1.9-2.8c.1-2.4.3-4.8.6-7.1s.6-4.7,1-7.1a60.38,60.38,0,0,1,1.6-7.1c.3-1.2.7-2.4,1.1-3.7a28.75,28.75,0,0,1,1.8-4c.1-.2.3-.4.4-.6l.2-.3a51.28,51.28,0,0,1,5.3-5.1,63.1,63.1,0,0,1,5.8-4.4c2-1.3,4-2.6,6.1-3.7,1.1-.6,2.1-1.1,3.2-1.6.6-.3,1.1-.5,1.7-.8s1.1-.4,1.8-.7a5.6,5.6,0,0,1,4.4,10.3Z"/><path class="cls-8" d="M227,85.9c-4.9-3.5-7.9-3.9-19.7,1.3-1.4,7.5,3.2,18.4,3.2,18.4S226.3,97.3,227,85.9Z"/><path class="cls-16" d="M228.3,65.1c.7,5.5,1.2,15.4-2.7,18.5,0,0,5.1-.1,14.9,7.9,3.7-4,1.6-5.7,1.6-5.7-5.8-2.2-5.4-6.6-4.1-10.6Z"/><path class="cls-4" d="M238.4,89.9c-3.6,0-5.4,5.2-5.4,5.2s-8.6-6.8-9.8-11.6a33.58,33.58,0,0,0,3.3-1.6C226.6,81.9,236.6,87.6,238.4,89.9Z"/><path class="cls-4" d="M241.8,89.8s2.7,1,3.6,5c1.8-7.6-1.7-8.8-1.7-8.8a4.37,4.37,0,0,0-3.1-.9A3.75,3.75,0,0,1,241.8,89.8Z"/><path class="cls-10" d="M232.2,69.2l5.7,6a24.6,24.6,0,0,0-.7,2.9c-2.2-.6-5.2-3.5-5.3-6A7,7,0,0,1,232.2,69.2Z"/><path class="cls-16" d="M222.1,57.1c2,8.5,2.7,12.2,7.9,16.1,7.7,5.9,17.7,2.1,18.3-6.8.5-8-2.9-20.6-12-23a11.23,11.23,0,0,0-14,7.5A10.94,10.94,0,0,0,222.1,57.1Z"/><path class="cls-11" d="M223.8,63.3c3.1-1.5,6.5-9.1,2-12.7,3.7.7,7.9-.3,11.8-3.3,5.1-4,12.6,5.9,10.1.1-3.6-8.4-14.3-10.5-24-3.5S214.7,59.3,223.8,63.3Z"/><path class="cls-4" d="M221.1,61.6c-.1,0-.2-.1-.1-.2s0-.1.1-.1c2.5-1.1,13.1-3.3,13.6-3.4.1,0,.2,0,.2.1h0c0,.1,0,.2-.1.2s-11.1,2.3-13.7,3.4Z"/><path class="cls-10" d="M234,58a4.46,4.46,0,0,0-3.4-.1A7.81,7.81,0,0,0,234,58Z"/><path class="cls-10" d="M233.9,58.8a3.52,3.52,0,0,0-3,.7A10.1,10.1,0,0,0,233.9,58.8Z"/><path class="cls-11" d="M235.9,57.9c.1.7.6,1.3,1.1,1.2s.7-.7.6-1.4-.6-1.3-1.1-1.2S235.7,57.2,235.9,57.9Z"/><path class="cls-11" d="M244.6,56.9c.1.7.6,1.3,1.1,1.2s.7-.7.6-1.4-.6-1.3-1.1-1.2S244.5,56.2,244.6,56.9Z"/><path class="cls-11" d="M245,55.6l1.6-.7S246,56.3,245,55.6Z"/><path class="cls-17" d="M243,58.3a23.08,23.08,0,0,0,3.2,4.5,3.22,3.22,0,0,1-2.5.7Z"/><path class="cls-11" d="M239.9,66.7h1.2a.22.22,0,0,0,.2-.2h0c0-.1-.1-.2-.3-.2a6.18,6.18,0,0,1-5-1.7.19.19,0,0,0-.3,0h0a.19.19,0,0,0,0,.3A6.44,6.44,0,0,0,239.9,66.7Z"/><path class="cls-16" d="M220.1,64.8a6,6,0,0,0,4.2,2.5c2.1.2,2.5-2.3,1.5-4.4-.9-1.9-3.2-4.4-5-3.5S218.7,63,220.1,64.8Z"/><path class="cls-11" d="M233.1,52.4c.1,0,.2-.1.3-.1a3.26,3.26,0,0,1,2.7-1.2.55.55,0,0,0,.5-.3h0a.66.66,0,0,0-.4-.5,4.07,4.07,0,0,0-3.5,1.5c-.1.2-.1.5.1.6.1-.1.2,0,.3,0Z"/><path class="cls-11" d="M246.3,52a.37.37,0,0,0,.3-.1.37.37,0,0,0,0-.6h0a4.6,4.6,0,0,0-3.6-1.7.43.43,0,0,0-.4.4h0a.46.46,0,0,0,.5.4,3.7,3.7,0,0,1,2.9,1.4C246,51.9,246.1,52,246.3,52Z"/><path class="cls-4" d="M238.6,62.4c-2.1,0-3.9-2.2-4.1-5.1a6.63,6.63,0,0,1,.9-3.9,3.61,3.61,0,0,1,2.7-1.8c2.2-.2,4.1,2.1,4.4,5.1s-1.4,5.5-3.6,5.7ZM238.2,52H238a3.16,3.16,0,0,0-2.5,1.7,5.35,5.35,0,0,0-.8,3.7c.2,2.8,2,4.9,4,4.8s3.5-2.5,3.3-5.3S240.2,52,238.2,52Z"/><path class="cls-4" d="M247.9,61.9c-2.1,0-3.9-2.2-4.1-5.1a6.63,6.63,0,0,1,.9-3.9,3.61,3.61,0,0,1,2.7-1.8c2.2-.2,4.1,2.1,4.4,5.1a6.63,6.63,0,0,1-.9,3.9,3.61,3.61,0,0,1-2.7,1.8Zm-.3-10.5h-.2a3.16,3.16,0,0,0-2.5,1.7,6,6,0,0,0-.8,3.7c.2,2.7,1.9,4.8,3.8,4.8h.2a3.16,3.16,0,0,0,2.5-1.7,5.35,5.35,0,0,0,.8-3.7C251.2,53.5,249.5,51.4,247.6,51.4Z"/><path class="cls-4" d="M244,57.2c-.1,0-.1,0-.1-.1-.4-.6-1.5.1-1.5.1h-.2c-.1-.1-.1-.1,0-.2s1.4-.8,1.9,0l-.1.2Z"/><path class="cls-11" d="M236.3,56.5l1.6-.7S237.3,57.3,236.3,56.5Z"/></g><image width="2000" height="2000" transform="translate(294.12 171.21) scale(0.05 0.05)" xlink:href="../../../../../../../Graphic%20Design/Hassan%20Logo%201/custom.png"/></g></g></svg>